<?xml version="1.0" encoding="UTF-8" standalone="no"?><svg xmlns="http://www.w3.org/2000/svg" xmlns:xlink="http://www.w3.org/1999/xlink" fill="#010101" height="216.8" preserveAspectRatio="xMidYMid meet" version="1" viewBox="-0.2 -0.1 500.3 216.8" width="500.3" zoomAndPan="magnify"><g><g id="change1_1"><path d="M47.9820557,213.6718292c-1.6576233,0-3.2862701-0.0656891-4.8395729-0.1951294 c-2.7994156-0.2328033-5.4220581-0.3467865-8.0186195-0.3467865c-0.6829491,0-1.3668671,0.0086975-2.0517464,0.025116 c-0.518734,0.012558-1.0336037,0.0183563-1.5465393,0.0183563c-4.5816555,0-8.9092579-0.4607849-13.4918785-0.9485931 c-1.5252876-0.1622925-3.0496073-0.3245697-4.5816555-0.4685059c-1.794796-0.1700134-3.3287764-0.5380554-4.1034946-0.9853058 c-0.9949617-0.5747528-1.8382649-1.086731-2.5791736-1.5648956l-1.3823209-0.8935242l-0.0386395,0.0183563l-0.7099972-0.6240387 L6.4052,207.5629578l0.1178498-2.6129913c0.1081901-2.411087-0.0618229-4.7033691-0.2260399-6.9193268 c-0.101428-1.3562469-0.1960945-2.6361694-0.227006-3.9073944c-0.0454011-1.8914032-0.0396051-3.8368835-0.0338092-5.7186279 c0.0086937-3.0322113,0.0173874-6.1687622-0.1806388-9.289856c-0.5844197-9.2029114-0.2704754-18.6212463,0.0328431-27.7285309 c0.0618229-1.8614502,0.1236458-3.7219238,0.1787071-5.583374v-0.1487579 c-0.0289798-1.3852234-0.0260816-2.5357056,0.0782442-3.651413l0.0106258-0.1101227l0.0019321-0.1101227 c0.056993-2.9240265,0.0888705-5.8480682,0.1207476-8.7711334c0.0280137-2.5569458,0.0550613-5.1129379,0.1004624-7.6689301 c0.0318775-1.8411636,0.0531292-3.6832886,0.0743804-5.5254211c0.0560274-4.7854767,0.113986-9.7342072,0.3767333-14.5583191 c0.1023941-1.85952,0.1806388-3.7209702,0.2598495-5.5824127c0.2666111-6.2914505,0.5419164-12.7973404,1.7590547-19.0076447 c0.1506929-0.767952,0.1487608-1.4866486,0.1477947-2.0633392c-0.0009661-0.2231369-0.0028982-0.4462814,0.0106258-0.6665268 c0.4762297-7.9394073,0.2086525-15.9406433-0.050231-23.6781654l-0.1584215-4.9216805 c-0.2472916-7.9162292-0.5032768-16.1009979-1.592905-24.1775799c-0.1207476-0.8993301-0.0821085-1.8759384,0.1091561-2.7501526 c0.3680396-1.6721153,0.517767-3.2466679,0.4569097-4.8105927c-0.0695505-1.7658167,0.4317942-3.5847616,0.9630852-5.5099649 c0.1806383-0.6549358,0.3603115-1.3089066,0.5216303-1.9667406C9.3224678,9.8572254,9.4267931,9.7026682,9.476059,9.6678925 l0.1816044-0.1217136l3.3162184-2.3280182L9.754262,4.758769C9.6393099,4.6708646,9.5282221,4.5848923,9.4209976,4.49892 c0.4076443,0.0328431,0.8423367,0.1023941,1.2982807,0.2096181c1.7097893,0.3999166,3.5596457,0.713861,5.6577606,0.9601865 l0.1120529,0.0135241l0.1120548,0.0038638c2.0372562,0.0840406,4.119915,0.1246119,6.3667908,0.1246119 c4.7188263,0,9.3545761-0.183537,13.8376999-0.3612776c3.1587639-0.1246119,6.4257164-0.2540536,9.6028328-0.3110466 c4.5806923-0.0830746,9.2531509-0.1149516,13.7729836-0.1458631c7.1173592-0.0482993,14.4781456-0.0985303,21.6998329-0.3487201 c11.8970413-0.4124742,24.9194489-0.6047049,40.9837418-0.6047049c8.5286636,0,17.204155,0.0521631,25.5946732,0.1023941 c4.4145508,0.0270476,8.828125,0.0531292,13.2397614,0.0724487c1.7242737-0.0280137,3.3838348-0.050231,5.0404968-0.050231 c1.601593,0,3.0351105,0.0202856,4.3826599,0.0627885l0.5380554,0.0019321c6.7570496,0,13.5112-0.0231833,20.2653503-0.0463672 c6.1349487-0.0212517,12.270874-0.0415373,18.4067993-0.0454011c4.3614044-0.0028982,8.7237854-0.0164218,13.0871277-0.0299454 c4.8521271-0.0154557,9.7042694-0.0299454,14.5554352-0.0299454c7.9152527,0,14.3931274,0.0415368,20.3841705,0.1313734 c4.3971558,0.0656867,8.7991333,0.1081901,13.2020874,0.1516595c15.2074585,0.1487613,30.9326782,0.3023524,46.2038879,1.434484 c0.7409058,0.0550609,1.53302,0.0792108,2.5675964,0.0792108c0.4037781,0,1.9928284-0.0144901,2.381134-0.0144901 c0.2617798,0,0.5235596,0.0019321,0.7834167,0.005796c4.4918213,0.0772786,9.0734863,0.1149521,14.0077209,0.1149521 c13.9739075,0,28.1448669-0.3129783,41.8492737-0.6153312l11.6864319-0.2521214 c18.6705322-0.3941207,37.9776306-0.8027315,56.8451843-2.0246994c1.2229309-0.0801766,2.4922485-0.1197817,3.7712097-0.1197817 c1.6421509,0,3.2543945,0.0656867,4.7903137,0.1941624c2.7829895,0.233768,5.3843689,0.3467879,7.9538879,0.3467879 c0.6819763,0,1.3639832-0.0086939,2.0469055-0.0251157c0.513916-0.0125577,1.0249329-0.0183535,1.53302-0.0183535 c4.545929,0,8.8406677,0.4607737,13.3865967,0.9485948c1.5146484,0.1622853,3.0283508,0.3245702,4.5497742,0.4685016 c1.7764587,0.1690469,3.2930298,0.5351543,4.0571289,0.9795065c1.5648804,0.9118876,3.3538818,1.9986181,4.7458801,3.147171 l0.4916687,0.4066792l0.2772522,0.075346l0.1960754,0.1236458l-0.2752991,0.7399435 c-0.0704956,0.1951284-0.1381226,0.391223-0.1931763,0.5892487l-0.0686035,0.2453594l-0.026062,0.2521219 c-0.3236084,3.1616611-0.0589294,6.0972824,0.1960754,8.9372711c0.1217041,1.3543072,0.2366638,2.6342354,0.2859497,3.905468 c0.0733948,1.8894615,0.0965881,3.8339844,0.1188049,5.7137871c0.0357361,3.0235252,0.0724487,6.1494446,0.3158875,9.2579765 c0.718689,9.1729698,0.5438232,18.5739136,0.3747864,27.6647758c-0.0347595,1.858551-0.0695496,3.718071-0.0975647,5.576622 l0.0019226,0.1487579c0.0492859,1.3861847,0.0637512,2.5357056-0.025116,3.6407852l-0.0086975,0.1110916l-0.000946,0.1120529 c-0.0135193,2.9018097-0.0028992,5.8007278,0.0086975,8.7006073c0.0096436,2.5685425,0.0193176,5.1370926,0.0115967,7.7056427 c-0.0048523,1.8343964,0.000946,3.6688004,0.0057678,5.5041656c0.0154724,4.779686,0.0309143,9.7216492-0.162262,14.5419083 c-0.0744019,1.8585434-0.1255798,3.7190323-0.1777344,5.5795135c-0.1748657,6.2798538-0.3545227,12.7731857-1.4798889,18.9844589 c-0.1400757,0.7689209-0.127533,1.4847107-0.1178589,2.0604401c0.0038757,0.222168,0.0096436,0.4443512-0.0009766,0.6645966 c-0.3593445,7.9316864,0.025116,15.9116669,0.3979797,23.628891l0.2328186,4.9564667 c0.3632202,7.8795166,0.7389832,16.0275726,1.944519,24.0539246c0.1342773,0.8935394,0.1101074,1.8662872-0.068573,2.7404938 c-0.342926,1.674057-0.4694824,3.2485962-0.3864136,4.8096313c0.0956421,1.7580872-0.3786621,3.5780029-0.8809814,5.505127 c-0.1709595,0.6568756-0.3419495,1.313736-0.4935913,1.974472c-0.0618286,0.2666168-0.1603699,0.4182739-0.2115479,0.4549866 l-2.961731,2.1657257l1.6817932,1.6073914c-0.4443665-0.0289764-0.9225159-0.1014252-1.4257813-0.2183075 c-1.730072-0.4018402-3.5934753-0.7157898-5.6954346-0.9601898l-0.1101379-0.012558l-0.111084-0.0038605 c-2.0527039-0.0840454-4.152771-0.1246033-6.4189453-0.1246033c-4.7468567,0-9.4115906,0.1835327-13.9217529,0.3603058 c-3.1867676,0.1246033-6.4817505,0.2540588-9.6868591,0.3110504c-4.6164551,0.0830688-9.325592,0.1149445-13.8792419,0.1458588 c-7.1705017,0.0482941-14.5844116,0.098526-21.8592224,0.3487244c-11.987854,0.4124756-25.1087952,0.6047058-41.2909241,0.6047058 c-8.6088562,0-17.3664551-0.0521698-25.834259-0.1024017c-4.4319153-0.0260773-8.861908-0.0531311-13.2919006-0.0724487 c-1.7310486,0.0289764-3.3973694,0.0502319-5.060791,0.0502319c-1.6180115,0-3.0689392-0.0202789-4.4338684-0.0637512 l-0.5264587-0.0009766c-6.8121033,0-13.6222839,0.0231934-20.4324646,0.0463715 c-6.1813049,0.0202942-12.3616638,0.0415344-18.5429993,0.0454102c-4.3961792,0.0028992-8.7943115,0.0164185-13.1914673,0.0299377 c-4.8869019,0.0154572-9.7728271,0.029953-14.659729,0.029953c-7.9751587,0-14.5003815-0.0415497-20.5358276-0.1313782 c-4.4300079-0.0656891-8.8648224-0.1081848-13.3006287-0.1516571c-15.322403-0.1487579-31.1654968-0.3023529-46.5526276-1.434494 c-0.7438049-0.0540924-1.5388031-0.0782318-2.5782013-0.0782318c-0.4037933,0-1.9918671,0.0135193-2.3792267,0.0135193 c-0.2714386,0-0.5428772-0.0019379-0.8133545-0.0067596c-4.5256195-0.0763245-9.1410828-0.1139832-14.1139679-0.1139832 c-14.0772705,0-28.3535156,0.312973-42.1593475,0.6153259l-11.8728943,0.2540588 c-18.7777328,0.3950806-38.1949463,0.8027191-57.1707115,2.0237274 C50.5457764,213.6312561,49.2697105,213.6718292,47.9820557,213.6718292z" fill="#ffffff"/></g><g id="change2_1"><path d="M499.8815308,192.4506378c-1.2857361-8.561264-1.6069336-17.2029419-2.0104675-25.8192596 c-0.408844-8.7351379-0.9319153-17.48526-0.5349121-26.2438202c0.0352783-0.7778625-0.0635071-1.5750427,0.0739136-2.3326111 c1.4970093-8.2632599,1.3695068-16.6388016,1.7027893-24.9735413c0.2685242-6.7104416,0.1395569-13.4365768,0.1593628-20.1559525 c0.0159607-5.4667358-0.0463562-10.9320297-0.020752-16.4004517c0.1060181-1.321228,0.0799255-2.6518707,0.0325928-3.9839554 c0.1654358-11.1670036,0.5892639-22.3441467-0.2859192-33.5167007c-0.3864136-4.9318237-0.2357178-9.9020462-0.4277039-14.8548794 c-0.1569519-4.0421543-0.9365234-8.1106319-0.4957886-12.4261599c0.0545959-0.1924715,0.1299438-0.3815632,0.1946411-0.5723448 c1.1142578-0.5382938,1.164032-1.1403418,0.7952576-1.8131495c0.0166626-0.0338087,0.0354919-0.0676184,0.0504761-0.1011868 c0.0531311-0.0429859,0.0978088-0.0862131,0.1185608-0.1289587c0.0483093-0.0992546,0.0410767-0.1762915,0.0082092-0.2429438 c0.1308899-0.5240459,0.0352783-1.0391564-0.394104-1.5371203c-0.6025391-0.6991301-1.2922363-0.7435651-2.0797729-0.5580964 c-0.0523987-0.0333261-0.1055298-0.0540948-0.1584167-0.0693092c-1.4591064-1.2028899-3.2546387-2.3239126-5.1421814-3.4227178 c-1.2782288-0.7440481-3.2355347-1.1758423-5.2694092-1.3687974c-6.5404358-0.6204023-12.9432068-1.5788985-19.8217468-1.4110591 c-3.2290344,0.0787276-6.4401855-0.0405713-9.6798706-0.3124954c-2.9078369-0.2441521-6.0663452-0.2699921-9.0022278-0.0794521 c-20.4061279,1.3231547-41.0131836,1.6820172-61.5589294,2.1229882 c-20.8292236,0.4470086-41.6930237,1.0082445-62.5864868,0.6493819c-1.8554077-0.0318775-3.7557373,0.0702753-5.5640564-0.0635133 c-19.7232056-1.4610487-39.6977844-1.2970732-59.5801392-1.5941129 c-16.0068054-0.2390807-32.0476685-0.080901-48.0733185-0.0712413 c-13.0388336,0.0077279-26.0726013,0.0941833-39.1150513,0.0922514c-3.1524811-0.1002208-6.3257294-0.0683433-9.5028534-0.0152143 c-26.6347961-0.1166424-53.2971268-0.4916851-79.9343338,0.4322773 c-11.7584229,0.407886-23.6144142,0.2789274-35.4245148,0.4924095c-9.6388168,0.1746016-19.3343849,0.9717786-29.6317596,0.5501273 c-1.8104925-0.2120333-3.592247-0.496515-5.3266687-0.9022278C9.6248198,1.404153,7.8850851,1.3640647,6.2310815,1.9670793 C4.5698328,2.5727503,4.47082,3.2624619,4.9214506,4.0492549c-0.09201,0.0613399-0.1605945,0.1241288-0.1907816,0.1854687 C4.5630713,4.578372,4.9441514,4.7041912,5.4488773,4.7689118c0.6638713,0.8242245,1.5257692,1.6003919,2.5038266,2.348062 C7.8976431,7.1548891,7.8411331,7.1903887,7.7863135,7.2285452C7.0321226,7.7513833,6.5848727,8.565465,6.3757377,9.416254 c-0.6725655,2.7356625-1.6820173,5.4073296-1.5692391,8.2999649c0.0528879,1.3581715-0.0920095,2.7047501-0.3897738,4.0605068 c-0.2673354,1.216898-0.3182912,2.5431919-0.1514177,3.7803726c1.1599035,8.5972443,1.3540659,17.2609024,1.6308203,25.9004097 c0.2803764,8.758564,0.6749802,17.5340309,0.1492443,26.3041878c-0.0468502,0.7788239,0.0403295,1.5791397-0.1081901,2.3362274 c-1.6182623,8.2577057-1.6139154,16.652092-2.0696177,24.9986649c-0.3670735,6.7198639-0.3371282,13.4614563-0.455461,20.1938705 c-0.0963566,5.4776077-0.1142273,10.9544754-0.2202439,16.4335403c-0.1253362,1.3224182-0.1190574,2.6559601-0.0912855,3.991684 c-0.3294001,11.1870422-0.9174418,22.3803558-0.2064786,33.5879364c0.3139443,4.9472809,0.0900779,9.9254608,0.2093766,14.8908539 c0.0835576,3.4736786,0.619195,6.9746399,0.454495,10.6226807c-0.6795688,0.0545654-1.3497193,0.1890869-2.005863,0.4264832 c-1.6738063,0.6056671-1.7735441,1.2953796-1.3195323,2.0821686c-0.0927343,0.0613403-0.1615606,0.1241302-0.1922305,0.1854706 c-0.1688055,0.3436432,0.2151726,0.4694672,0.723521,0.5341797c0.4115086,0.5071411,0.8983638,0.99617,1.4395556,1.4719238 c-0.1318567,0.5172882-0.0417788,1.0287628,0.3755257,1.5284271c0.5923889,0.7095184,1.2811344,0.7640839,2.0713081,0.5897369 c0.0608568,0.0398407,0.1229215,0.0700226,0.1840196,0.083786c0.1444144,0.0323639,0.2446351,0.0164337,0.3248119-0.0210114 c0.862381,0.5571442,1.7713704,1.1031647,2.7057171,1.6431427c1.2881384,0.7440491,3.2599497,1.1758423,5.3087988,1.3688049 c6.5894499,0.620636,13.0405245,1.5788879,19.9702415,1.4113007c3.2534294-0.0787354,6.4882622,0.040329,9.7523193,0.3124847 c2.9298248,0.2441559,6.1117706,0.2697601,9.0698509,0.0794525c20.5585251-1.3231506,41.319664-1.6820068,62.0194626-2.12323 c20.9850159-0.4470062,42.0050354-1.0082397,63.0547638-0.6493835c1.8691711,0.0318756,3.7837524-0.0702667,5.6055908,0.0635223 c19.8707428,1.4610443,39.9953003,1.2970734,60.0259247,1.5941162c16.1265869,0.2390747,32.2874756,0.0808868,48.4334106,0.071228 c13.1363831-0.0077209,26.2677002-0.0939331,39.4077148-0.0922394c3.1759338,0.1002197,6.3728333,0.0683441,9.5736389,0.015213 c26.8345032,0.1168823,53.6963196,0.491684,80.5327454-0.4320374c11.846344-0.4078827,23.7911987-0.2789307,35.6896667-0.4926605 c9.7112732-0.1743469,19.4790649-0.9717712,29.8534546-0.549881c1.8242798,0.211792,3.6190796,0.4962769,5.3665161,0.9022369 c1.7849121,0.4143982,3.5372009,0.4547272,5.2035217-0.1482849c1.6737976-0.6056671,1.7735291-1.2956238,1.319519-2.0824127 c0.0927429-0.0613403,0.1620483-0.1238861,0.1922302-0.1854706c0.1688232-0.3436584-0.2151489-0.469223-0.7235107-0.5341949 c-0.2854614-0.3516083-0.6160583-0.6921234-0.966217-1.0280457c0.0248718-0.017868,0.0502319-0.0342865,0.0751038-0.0519257 c0.74646-0.5327301,1.1818848-1.3514099,1.3784485-2.2033997c0.6324768-2.7395325,1.6025696-5.4198914,1.4475403-8.3045502 c-0.072937-1.3543091,0.0521545-2.6999207,0.3301086-4.0571289 C500.0351257,195.0066223,500.0664978,193.6827545,499.8815308,192.4506378z M485.1109314,205.2052307 c-6.589447-0.6204071-13.0400391-1.5786591-19.9700012-1.4110565c-3.2534485,0.0787201-6.4885254-0.0405731-9.7525635-0.3125 c-2.9293518-0.2441559-6.1117859-0.269989-9.0696106-0.0794525c-20.5587769,1.3231659-41.3199158,1.6820221-62.0194702,2.1229858 c-20.98526,0.4470215-42.0050354,1.008255-63.0549927,0.6493835c-1.8691711-0.0318756-3.7837524,0.070282-5.6055908-0.0635071 c-19.8707581-1.4610443-39.9948425-1.2970734-60.0259247-1.5941162 c-16.1266022-0.2390747-32.2874908-0.0809021-48.4334106-0.0712433 c-13.1363983,0.0077362-26.2677155,0.0941925-39.4075012,0.0922546c-3.1761475-0.0999756-6.3730621-0.0683441-9.5738525-0.015213 c-26.8342743-0.1166382-53.696312-0.491684-80.5327606,0.4322815c-11.8463287,0.4078827-23.7911835,0.2789154-35.6896744,0.4924011 c-9.6755257,0.1738739-19.4087639,0.9647827-29.7411575,0.5530243c0.6682186-2.6038055,1.5784159-5.1617279,1.4709501-7.9205627 c-0.052887-1.3579407,0.0920095-2.7047577,0.3897743-4.0605164c0.2673359-1.2168884,0.3182907-2.5431824,0.1514177-3.7801361 c-1.1599035-8.5974884-1.3540659-17.2611389-1.6308203-25.90065c-0.2803764-8.7585602-0.6749802-17.5340271-0.1492443-26.304184 c0.0468502-0.7788239-0.0403299-1.5791473,0.1081896-2.3362274c1.6182632-8.2577057,1.6139154-16.652092,2.0696182-24.9986649 c0.3670731-6.7198563,0.3371277-13.4614487,0.4554605-20.1938705c0.0963573-5.4776001,0.1142273-10.954483,0.2202444-16.4335327 c0.1253357-1.3224335,0.1190577-2.6559677,0.0912848-3.991684c0.3294001-11.1868019,0.9174423-22.380127,0.2064791-33.5879402 c-0.3139439-4.947279-0.0900774-9.9254704-0.2093763-14.8906212c-0.0833158-3.4734306-0.6189537-6.9741526-0.4544954-10.6221857 c0.875905,0.2115498,1.8341608,0.3612776,2.812459,0.4540119c6.5404263,0.6206436,12.9434414,1.5788984,19.821722,1.4113007 c3.2295189-0.0787277,6.4402046,0.0403299,9.6798706,0.3124952c2.9080887,0.2439108,6.0663681,0.2697506,9.0027161,0.0794516 c20.4056587-1.3231544,41.012722-1.6822586,61.5586891-2.123229c20.8289948-0.4470091,41.6927795-1.0082445,62.5862579-0.6493826 c1.8554077,0.0318775,3.7557373-0.0702753,5.5640564,0.0635138c19.7231903,1.4610491,39.6980286,1.2970734,59.5801239,1.5941124 c16.0068207,0.2390814,32.0476837,0.0809011,48.0733185,0.0712414c13.0388489-0.0077276,26.0726013-0.0939417,39.1152954-0.0922508 c3.1522522,0.1002207,6.3255005,0.0683432,9.5026245,0.015214c26.6350403,0.116642,53.2971191,0.4916849,79.9343262-0.4320354 c11.7584229-0.4078865,23.6144104-0.2789278,35.42453-0.492651c9.6390381-0.1743603,19.3343811-0.9717789,29.6317444-0.5498857 c0.8616638,0.1007032,1.7155762,0.2212095,2.5622559,0.3600693c-0.2028503,0.357173-0.3523254,0.7440481-0.4438477,1.1413088 c-0.6324768,2.7395267-1.6025696,5.4198866-1.4475403,8.304553c0.072937,1.3543072-0.0521545,2.6999207-0.3301086,4.057127 c-0.2494812,1.2181034-0.2808533,2.5422249-0.0958862,3.7740936c1.2857361,8.5615044,1.6069031,17.203186,2.0104675,25.8195076 c0.408844,8.7351379,0.9319153,17.4852486,0.5349121,26.2438164c-0.0352783,0.7778549,0.0632629,1.5750351-0.0739136,2.3326035 c-1.4970398,8.2632599-1.3695068,16.6388092-1.7027893,24.9735489c-0.2685242,6.7104416-0.1395874,13.4365768-0.1593933,20.1559525 c-0.0159302,5.4667358,0.0463867,10.9320221,0.0207825,16.4002075c-0.1060181,1.3214722-0.0799255,2.6521149-0.0325928,3.9842072 c-0.1654358,11.1669922-0.5892639,22.3441315,0.2859192,33.5166931c0.3863831,4.9318237,0.2357178,9.9020386,0.4277039,14.8548737 c0.12146,3.131958,0.6107178,6.2817841,0.6225586,9.5485077 C488.2119751,205.6447601,486.68573,205.3535156,485.1109314,205.2052307z" fill="inherit"/></g></g></svg>