<?xml version="1.0" encoding="UTF-8" standalone="no"?><svg xmlns="http://www.w3.org/2000/svg" xmlns:xlink="http://www.w3.org/1999/xlink" fill="#000000" height="489" preserveAspectRatio="xMidYMid meet" version="1" viewBox="17.5 14.8 489.0 489.0" width="489" zoomAndPan="magnify"><g><g color="#000000"><g id="change1_1"><path d="M 46.291933,24.458487 H 467.72877 c 16.18502,0 29.21484,13.029818 29.21484,29.214839 V 475.11013 c 0,16.18502 -13.02982,29.21484 -29.21484,29.21484 H 46.291933 c -16.185021,0 -29.21484,-13.02982 -29.21484,-29.21484 V 53.673326 c 0,-16.185021 13.029819,-29.214839 29.21484,-29.214839 z" fill="#ff3131" fill-rule="evenodd" style="-inkscape-stroke:none" transform="matrix(1.01913 0 0 1.01913 .145 -10.119)"/></g><path d="m 46.291016,-0.19140625 c -29.414742,0 -53.8632816,24.45049325 -53.8632816,53.86523425 V 475.10937 c 0,29.41475 24.4485396,53.86524 53.8632816,53.86524 H 467.72852 c 29.41474,0 53.86523,-24.45049 53.86523,-53.86524 V 53.673828 c 0,-29.414741 -24.45049,-53.86523425 -53.86523,-53.86523425 z m 0,49.30078125 H 467.72852 c 2.95526,0 4.56445,1.609184 4.56445,4.564453 V 475.10937 c 0,2.95527 -1.60919,4.56641 -4.56445,4.56641 H 46.291016 c -2.955269,0 -4.564453,-1.61114 -4.564454,-4.56641 V 53.673828 c 0,-2.955269 1.609185,-4.564453 4.564454,-4.564453 z" fill="none" style="-inkscape-stroke:none" transform="matrix(1.01913 0 0 1.01913 .145 -10.119)"/></g></g></svg>